<svg width="37" height="37" viewBox="0 0 37 37" fill="none" xmlns="http://www.w3.org/2000/svg">
<path d="M18.5 3.0835C9.99 3.0835 3.08333 9.99016 3.08333 18.5002C3.08333 27.0102 9.99 33.9168 18.5 33.9168C27.01 33.9168 33.9167 27.0102 33.9167 18.5002C33.9167 9.99016 27.01 3.0835 18.5 3.0835ZM25.6533 13.5668C25.4221 16.0027 24.42 21.9227 23.9112 24.6514C23.6954 25.8077 23.2637 26.1931 22.8629 26.2393C21.9687 26.3164 21.2904 25.6535 20.4271 25.0831C19.0704 24.1889 18.2996 23.6339 16.9892 22.7706C15.4629 21.7685 16.4496 21.2135 17.3283 20.3193C17.5596 20.0881 21.5062 16.496 21.5833 16.1722C21.594 16.1232 21.5926 16.0723 21.5792 16.0239C21.5657 15.9756 21.5407 15.9312 21.5062 15.8947C21.4137 15.8177 21.2904 15.8485 21.1825 15.8639C21.0437 15.8947 18.8854 17.3285 14.6767 20.1652C14.06 20.5814 13.505 20.7972 13.0117 20.7818C12.4567 20.7664 11.4083 20.4735 10.6221 20.2114C9.65083 19.9031 8.89541 19.7335 8.95708 19.1939C8.98791 18.9164 9.37333 18.6389 10.0979 18.346C14.5996 16.3881 17.5904 15.0931 19.0858 14.4764C23.3717 12.6881 24.2504 12.3797 24.8362 12.3797C24.9596 12.3797 25.2525 12.4106 25.4375 12.5647C25.5917 12.6881 25.6379 12.8577 25.6533 12.981C25.6379 13.0735 25.6687 13.351 25.6533 13.5668Z" fill="white"/>
</svg>
