<svg width="41" height="41" viewBox="0 0 41 41" fill="none" xmlns="http://www.w3.org/2000/svg">
<path d="M20.5 3.4165C29.9351 3.4165 37.5833 11.0647 37.5833 20.4998C37.5833 29.935 29.9351 37.5832 20.5 37.5832C17.5924 37.5873 14.7322 36.8462 12.1924 35.4307L11.6713 35.1266L6.49167 36.6504C6.2098 36.7335 5.91139 36.7432 5.62472 36.6786C5.33805 36.614 5.07263 36.4773 4.85361 36.2814C4.6346 36.0854 4.46925 35.8368 4.37324 35.5591C4.27723 35.2814 4.25374 34.9837 4.305 34.6944L4.34942 34.5082L5.87325 29.3285C4.26239 26.6657 3.41271 23.612 3.41667 20.4998C3.41667 11.0647 11.0649 3.4165 20.5 3.4165ZM20.5 6.83317C18.053 6.83273 15.6508 7.48927 13.5442 8.73423C11.4376 9.97919 9.70394 11.7669 8.52418 13.9107C7.34442 16.0545 6.76187 18.4757 6.83737 20.9215C6.91286 23.3673 7.64364 25.748 8.95338 27.8149C9.29163 28.3479 9.43684 29.0039 9.32238 29.6548L9.25575 29.9333L8.50238 32.4975L11.0666 31.7441C11.8063 31.5254 12.575 31.6587 13.1849 32.0465C14.9758 33.1804 17.0059 33.8823 19.1148 34.0965C21.2237 34.3108 23.3534 34.0315 25.3358 33.2809C27.3181 32.5302 29.0987 31.3288 30.5368 29.7714C31.9748 28.2141 33.0309 26.3437 33.6215 24.3079C34.2121 22.2721 34.3211 20.1269 33.9399 18.0417C33.5586 15.9566 32.6976 13.9887 31.4248 12.2936C30.152 10.5986 28.5024 9.22284 26.6063 8.27514C24.7102 7.32744 22.6197 6.83378 20.5 6.83317ZM15.5493 12.2725C15.7386 12.1914 15.9456 12.1606 16.1503 12.1831C16.3551 12.2055 16.5505 12.2805 16.7178 12.4006C17.5788 13.0293 18.2621 13.8732 18.8498 14.6966L19.4084 15.5064L19.6698 15.8908C19.8211 16.1111 19.8955 16.3752 19.8813 16.6421C19.8671 16.909 19.7651 17.1638 19.5912 17.3668L19.463 17.4966L17.8845 18.6685C17.8094 18.7242 17.7566 18.8048 17.7357 18.896C17.7147 18.9871 17.7269 19.0827 17.7701 19.1656C18.1288 19.8148 18.7626 20.7834 19.4904 21.5112C20.2198 22.2389 21.2329 22.9154 21.9265 23.3135C22.0768 23.3989 22.2579 23.3715 22.3809 23.2605L22.4458 23.1836L23.4725 21.6205C23.6607 21.3691 23.9391 21.2004 24.2491 21.1501C24.5592 21.0997 24.8766 21.1716 25.1347 21.3506L26.0623 21.998C26.9848 22.6558 27.8715 23.363 28.5736 24.2599C28.7035 24.4284 28.7861 24.6286 28.8128 24.8397C28.8395 25.0508 28.8094 25.2652 28.7256 25.4608C28.0491 27.0393 26.3357 28.3838 24.5556 28.3189L24.284 28.3018L23.9577 28.271L23.7732 28.2471L23.3666 28.1788C21.7881 27.8815 19.258 26.9864 16.6358 24.3658C14.0152 21.7435 13.12 19.2135 12.8228 17.635L12.7544 17.2284L12.7117 16.873L12.6895 16.5741L12.6827 16.446C12.6178 14.6625 13.969 12.949 15.5493 12.2725Z" fill="#FEFEFE"/>
</svg>
