<svg width="44" height="38" viewBox="0 0 44 38" fill="none" xmlns="http://www.w3.org/2000/svg">
<path d="M36.7237 16.8774H1.875C1.37772 16.8774 0.900806 17.0749 0.549175 17.4265C0.197544 17.7782 0 18.2551 0 18.7524C0 19.2496 0.197544 19.7266 0.549175 20.0782C0.900806 20.4298 1.37772 20.6274 1.875 20.6274H36.7237L23.0475 34.2999C22.6954 34.6519 22.4976 35.1295 22.4976 35.6274C22.4976 36.1253 22.6954 36.6028 23.0475 36.9549C23.3996 37.3069 23.8771 37.5047 24.375 37.5047C24.8729 37.5047 25.3504 37.3069 25.7025 36.9549L42.5775 20.0799C42.7521 19.9057 42.8906 19.6988 42.9852 19.471C43.0797 19.2432 43.1283 18.999 43.1283 18.7524C43.1283 18.5057 43.0797 18.2615 42.9852 18.0337C42.8906 17.8059 42.7521 17.599 42.5775 17.4249L25.7025 0.549868C25.3504 0.197793 24.8729 0 24.375 0C23.8771 0 23.3996 0.197793 23.0475 0.549868C22.6954 0.901943 22.4976 1.37946 22.4976 1.87737C22.4976 2.37528 22.6954 2.85279 23.0475 3.20487L36.7237 16.8774Z" fill="white"/>
</svg>
