<svg width="179" height="100" viewBox="0 0 179 100" fill="none" xmlns="http://www.w3.org/2000/svg">
<path d="M48.4061 75.6936C48.4061 81.3336 43.7484 85.9067 38.0046 85.9067H11.6222C5.87705 85.9067 1.21997 81.3336 1.21997 75.6936V49.7915C1.21997 44.1508 5.87705 39.5784 11.6222 39.5784H38.0046C43.7484 39.5784 48.4061 44.1508 48.4061 49.7915V75.6936Z" stroke="white" stroke-width="2.43999" stroke-miterlimit="10"/>
<path d="M39.8007 73.3651C41.2458 76.9761 39.4909 81.0741 35.8799 82.5206C32.2703 83.9657 28.1701 82.2115 26.7257 78.5998L23.1838 69.7534C21.7387 66.1423 23.4936 62.0436 27.1046 60.5985C30.7156 59.1527 34.8137 60.9083 36.2595 64.5193L39.8007 73.3651Z" stroke="white" stroke-width="1.62666" stroke-miterlimit="10"/>
<path d="M27.1045 60.5985C18.72 24.9067 9.21997 73.9067 9.21997 0.406664" stroke="white" stroke-width="0.813328" stroke-miterlimit="10" stroke-linecap="round"/>
<path d="M29.9404 68.0605L28.8497 65.1934" stroke="white" stroke-width="1.62666" stroke-miterlimit="10" stroke-linecap="round"/>
<path d="M32.7287 60.5378C32.982 60.955 33.2074 61.403 33.3978 61.8796L36.9391 70.7254C38.3842 74.3364 37.2998 78.1658 34.5164 79.2815C31.7336 80.3959 28.3048 78.3723 26.8597 74.7606L23.3177 65.9142C23.167 65.5367 23.0435 65.1571 22.9472 64.7782" stroke="white" stroke-width="0.406664" stroke-miterlimit="10"/>
<g filter="url(#filter0_d_3_154)">
<path d="M71.324 41.4987H65.912L63.734 53.9067H59.752L61.93 41.4987H56.496L57.112 38.0667H71.94L71.324 41.4987ZM74.8933 43.0167C76.4773 43.0167 77.6726 43.3613 78.4793 44.0507C79.11 44.5933 79.4253 45.3487 79.4253 46.3167C79.4253 46.6393 79.3886 46.9913 79.3153 47.3727L78.8533 49.9467C78.5746 51.5013 77.922 52.6013 76.8953 53.2467C75.8833 53.892 74.5266 54.2147 72.8253 54.2147C71.124 54.2147 69.8773 53.892 69.0853 53.2467C68.4986 52.7627 68.2053 52.0367 68.2053 51.0687C68.2053 50.7313 68.242 50.3573 68.3153 49.9467L68.7773 47.3727C69.2906 44.4687 71.3293 43.0167 74.8933 43.0167ZM75.4873 47.8127C75.5166 47.666 75.5313 47.4827 75.5313 47.2627C75.5313 47.028 75.436 46.7713 75.2453 46.4927C75.0546 46.214 74.7173 46.0747 74.2333 46.0747C73.764 46.0747 73.368 46.236 73.0453 46.5587C72.7226 46.8667 72.5173 47.2847 72.4293 47.8127L72.1433 49.4627C72.114 49.6093 72.0993 49.8 72.0993 50.0347C72.0993 50.2547 72.1946 50.4967 72.3853 50.7607C72.576 51.0247 72.906 51.1567 73.3753 51.1567C73.8593 51.1567 74.2626 50.9953 74.5853 50.6727C74.908 50.3353 75.1133 49.932 75.2013 49.4627L75.4873 47.8127ZM91.4033 45.5687C91.4033 46.0673 91.3153 46.5513 91.1393 47.0207C90.9779 47.49 90.8166 47.8347 90.6553 48.0547L90.4133 48.3627H87.0913C87.4579 48.0253 87.6413 47.6073 87.6413 47.1087C87.6413 46.8447 87.5533 46.632 87.3773 46.4707C87.2159 46.2947 86.9886 46.2067 86.6953 46.2067C86.1966 46.2067 85.7639 46.456 85.3973 46.9547L84.1653 53.9067H80.4253L82.2953 43.3247H85.7713L85.5073 44.7987C86.3433 43.6107 87.3553 43.0167 88.5433 43.0167C89.4966 43.0167 90.2079 43.244 90.6773 43.6987C91.1613 44.1533 91.4033 44.7767 91.4033 45.5687ZM101.714 54.2587C101.391 56.1213 100.651 57.5953 99.492 58.6807C98.348 59.766 97.0354 60.3087 95.554 60.3087C94.0727 60.3087 93.002 60.0373 92.342 59.4947C91.6967 58.952 91.374 58.2407 91.374 57.3607C91.374 56.07 92.1954 54.948 93.838 53.9947C92.5914 53.5987 91.968 52.6527 91.968 51.1567C91.968 50.79 92.0047 50.3867 92.078 49.9467L92.518 47.3727C92.7527 46.0527 93.2954 45.004 94.146 44.2267C94.9967 43.4347 96.0967 43.0387 97.446 43.0387C98.81 43.0387 99.7414 43.3687 100.24 44.0287L100.372 43.3247H103.65L101.714 54.2587ZM95.906 49.4627C95.8767 49.5947 95.862 49.778 95.862 50.0127C95.862 50.2473 95.972 50.482 96.192 50.7167C96.412 50.9367 96.7787 51.0467 97.292 51.0467C97.82 51.0467 98.2747 50.8413 98.656 50.4307L99.316 46.7347C99.1107 46.368 98.722 46.1847 98.15 46.1847C97.578 46.1847 97.1307 46.3313 96.808 46.6247C96.4854 46.918 96.28 47.314 96.192 47.8127L95.906 49.4627ZM96.06 57.1627C97.0134 57.1627 97.6367 56.2973 97.93 54.5667L98.15 53.2907C96.1114 54.244 95.092 55.2047 95.092 56.1727C95.092 56.466 95.1727 56.7007 95.334 56.8767C95.51 57.0673 95.752 57.1627 96.06 57.1627ZM110.858 43.0167C112.442 43.0167 113.637 43.3613 114.444 44.0507C115.075 44.5933 115.39 45.3487 115.39 46.3167C115.39 46.6393 115.353 46.9913 115.28 47.3727L114.818 49.9467C114.539 51.5013 113.887 52.6013 112.86 53.2467C111.848 53.892 110.491 54.2147 108.79 54.2147C107.089 54.2147 105.842 53.892 105.05 53.2467C104.463 52.7627 104.17 52.0367 104.17 51.0687C104.17 50.7313 104.207 50.3573 104.28 49.9467L104.742 47.3727C105.255 44.4687 107.294 43.0167 110.858 43.0167ZM111.452 47.8127C111.481 47.666 111.496 47.4827 111.496 47.2627C111.496 47.028 111.401 46.7713 111.21 46.4927C111.019 46.214 110.682 46.0747 110.198 46.0747C109.729 46.0747 109.333 46.236 109.01 46.5587C108.687 46.8667 108.482 47.2847 108.394 47.8127L108.108 49.4627C108.079 49.6093 108.064 49.8 108.064 50.0347C108.064 50.2547 108.159 50.4967 108.35 50.7607C108.541 51.0247 108.871 51.1567 109.34 51.1567C109.824 51.1567 110.227 50.9953 110.55 50.6727C110.873 50.3353 111.078 49.932 111.166 49.4627L111.452 47.8127ZM134.914 51.0907C135.251 51.0907 135.552 51.0173 135.816 50.8707L135.706 53.3567C135.017 53.9287 134.232 54.2147 133.352 54.2147C131.357 54.2147 130.36 53.3787 130.36 51.7067C130.36 51.4133 130.389 51.098 130.448 50.7607L130.91 48.0547C130.954 47.7907 130.976 47.5267 130.976 47.2627C130.976 46.5587 130.587 46.2067 129.81 46.2067C129.047 46.2067 128.446 46.5073 128.006 47.1087L126.818 53.9067H123.078L124.112 48.0547C124.156 47.7907 124.178 47.5267 124.178 47.2627C124.178 46.5587 123.782 46.2067 122.99 46.2067C122.359 46.2067 121.817 46.4487 121.362 46.9327L120.13 53.9067H116.39L118.26 43.3247H121.736L121.494 44.6447C122.374 43.5593 123.489 43.0167 124.838 43.0167C126.745 43.0167 127.83 43.6473 128.094 44.9087C128.974 43.6473 130.147 43.0167 131.614 43.0167C133.095 43.0167 134.056 43.3467 134.496 44.0067C134.789 44.4613 134.936 44.96 134.936 45.5027C134.936 46.0453 134.899 46.5367 134.826 46.9767L134.276 50.2547C134.261 50.3427 134.254 50.4233 134.254 50.4967C134.254 50.8927 134.474 51.0907 134.914 51.0907ZM141.31 49.1767C141.266 49.4407 141.244 49.7047 141.244 49.9687C141.244 50.6727 141.64 51.0247 142.432 51.0247C143.078 51.0247 143.613 50.7973 144.038 50.3427L145.27 43.3247H149.01L147.074 54.2587C146.752 56.1213 146.011 57.5953 144.852 58.6807C143.708 59.766 142.396 60.3087 140.914 60.3087C139.433 60.3087 138.362 60.0373 137.702 59.4947C137.057 58.952 136.734 58.2407 136.734 57.3607C136.734 56.114 137.504 55.0067 139.044 54.0387C138.208 53.8333 137.68 53.4153 137.46 52.7847C137.328 52.4327 137.262 52.0367 137.262 51.5967C137.262 51.1567 137.299 50.7093 137.372 50.2547L138.604 43.3247H142.344L141.31 49.1767ZM141.42 57.1627C142.374 57.1627 142.997 56.2973 143.29 54.5667L143.51 53.2907C141.472 54.244 140.452 55.2047 140.452 56.1727C140.452 56.466 140.533 56.7007 140.694 56.8767C140.87 57.0673 141.112 57.1627 141.42 57.1627ZM159.973 50.5187C159.973 50.9 160.164 51.0907 160.545 51.0907C160.941 51.0907 161.271 51.0173 161.535 50.8707L161.425 53.3567C160.721 53.9287 159.929 54.2147 159.049 54.2147C157.436 54.2147 156.541 53.628 156.365 52.4547C155.632 53.628 154.554 54.2147 153.131 54.2147C150.726 54.2147 149.523 53.1807 149.523 51.1127C149.523 50.7607 149.56 50.372 149.633 49.9467L150.095 47.3727C150.33 46.0527 150.865 45.004 151.701 44.2267C152.552 43.4347 153.652 43.0387 155.001 43.0387C156.365 43.0387 157.289 43.354 157.773 43.9847L157.883 43.3247H161.227L159.995 50.2547C159.98 50.3427 159.973 50.4307 159.973 50.5187ZM153.461 49.4627C153.432 49.5947 153.417 49.778 153.417 50.0127C153.417 50.2473 153.527 50.482 153.747 50.7167C153.967 50.9367 154.334 51.0467 154.847 51.0467C155.375 51.0467 155.83 50.8413 156.211 50.4307L156.871 46.7347C156.71 46.368 156.328 46.1847 155.727 46.1847C154.598 46.1847 153.938 46.7273 153.747 47.8127L153.461 49.4627ZM169.974 47.1527C169.974 46.522 169.666 46.2067 169.05 46.2067C168.448 46.2067 167.95 46.434 167.554 46.8887L166.322 53.9067H162.582L164.452 43.3247H167.928L167.686 44.6227C168.551 43.552 169.644 43.0167 170.964 43.0167C172.284 43.0167 173.142 43.3393 173.538 43.9847C173.787 44.3953 173.912 44.8647 173.912 45.3927C173.912 45.9207 173.875 46.412 173.802 46.8667L173.208 50.2547C173.193 50.3427 173.186 50.4233 173.186 50.4967C173.186 50.8927 173.406 51.0907 173.846 51.0907C174.183 51.0907 174.484 51.0173 174.748 50.8707L174.638 53.3567C173.948 53.9287 173.164 54.2147 172.284 54.2147C170.289 54.2147 169.292 53.3787 169.292 51.7067C169.292 51.4133 169.321 51.098 169.38 50.7607L169.908 47.8347C169.952 47.5707 169.974 47.3433 169.974 47.1527Z" fill="white"/>
</g>
<g filter="url(#filter1_d_3_154)">
<path d="M61.94 79.3467C61.94 80.8187 62.996 81.5547 65.108 81.5547C67.2413 81.5547 68.308 80.8933 68.308 79.5707C68.308 78.8667 67.9453 78.2907 67.22 77.8427C66.4946 77.3947 65.6093 77.0213 64.564 76.7227C63.54 76.424 62.5053 76.0827 61.46 75.6987C60.436 75.2933 59.5613 74.6747 58.836 73.8427C58.1106 72.9893 57.748 71.9333 57.748 70.6747C57.748 65.32 61.1933 62.6427 68.084 62.6427C70.6013 62.6427 72.5 63.1227 73.78 64.0827C75.0813 65.0213 75.732 66.3333 75.732 68.0187C75.732 68.6373 75.6466 69.2347 75.476 69.8107C75.3266 70.3653 75.1666 70.76 74.996 70.9947L74.74 71.3787H69.076C69.5453 70.888 69.78 70.2693 69.78 69.5227C69.78 68.136 68.8733 67.4427 67.06 67.4427C64.7773 67.4427 63.636 68.168 63.636 69.6187C63.636 70.344 63.9986 70.92 64.724 71.3467C65.4493 71.7733 66.324 72.1147 67.348 72.3707C68.3933 72.6053 69.4386 72.904 70.484 73.2667C71.5293 73.6293 72.4146 74.2373 73.14 75.0907C73.8653 75.9227 74.228 77.0107 74.228 78.3547C74.228 81.064 73.4173 83.08 71.796 84.4027C70.1746 85.704 67.6786 86.3547 64.308 86.3547C60.9373 86.3547 58.6333 85.7573 57.396 84.5627C56.4786 83.6667 56.02 82.4293 56.02 80.8507C56.02 80.2533 56.084 79.6027 56.212 78.8987L56.308 78.3867H62.068L62.004 78.7707C61.9613 78.984 61.94 79.176 61.94 79.3467ZM99.394 67.8587H91.522L88.354 85.9067H82.562L85.73 67.8587H77.826L78.722 62.8667H100.29L99.394 67.8587ZM114.731 84.2427C113.046 85.6507 110.657 86.3547 107.563 86.3547C104.47 86.3547 102.326 85.64 101.131 84.2107C100.278 83.2293 99.8512 81.8747 99.8512 80.1467C99.8512 79.3787 99.9366 78.536 100.107 77.6187L102.699 62.8667H108.459L105.867 77.4907C105.782 78.024 105.739 78.5787 105.739 79.1547C105.739 80.648 106.635 81.3947 108.427 81.3947C109.494 81.3947 110.347 81.1173 110.987 80.5627C111.627 80.008 112.075 78.984 112.331 77.4907L114.923 62.8667H120.683L118.091 77.6187C117.558 80.6053 116.438 82.8133 114.731 84.2427ZM134.008 62.8667C136.803 62.8667 138.798 63.5707 139.992 64.9787C140.867 66.0453 141.304 67.3787 141.304 68.9787C141.304 69.5547 141.251 70.1627 141.144 70.8027L139.896 77.9387C139.47 80.3493 138.424 82.28 136.76 83.7307C135.096 85.1813 132.942 85.9067 130.296 85.9067H120.984L125.048 62.8667H134.008ZM131.992 67.8587H129.912L127.64 80.9147H130.68C131.683 80.9147 132.462 80.648 133.016 80.1147C133.592 79.56 133.987 78.664 134.2 77.4267L135.128 72.1787C135.214 71.7093 135.256 71.2827 135.256 70.8987C135.256 68.872 134.168 67.8587 131.992 67.8587ZM152.214 62.8667L148.182 85.9067H142.39L146.454 62.8667H152.214ZM165.151 62.6427C170.292 62.6427 172.863 64.744 172.863 68.9467C172.863 69.6507 172.788 70.408 172.639 71.2187L171.519 77.6187C171.007 80.584 169.898 82.7813 168.191 84.2107C166.484 85.64 164.084 86.3547 160.991 86.3547C157.898 86.3547 155.743 85.64 154.527 84.2107C153.695 83.2293 153.279 81.8747 153.279 80.1467C153.279 79.3787 153.364 78.536 153.535 77.6187L154.655 71.2187C155.658 65.5013 159.156 62.6427 165.151 62.6427ZM161.855 81.3947C162.922 81.3947 163.775 81.1173 164.415 80.5627C165.055 80.008 165.503 78.984 165.759 77.4907L166.847 71.3467C166.911 70.92 166.943 70.536 166.943 70.1947C166.943 68.4667 166.068 67.6027 164.319 67.6027C162.122 67.6453 160.81 68.8933 160.383 71.3467L159.295 77.4907C159.21 78.024 159.167 78.5787 159.167 79.1547C159.167 80.648 160.063 81.3947 161.855 81.3947Z" fill="white"/>
</g>
<defs>
<filter id="filter0_d_3_154" x="52.496" y="38.0667" width="126.252" height="30.242" filterUnits="userSpaceOnUse" color-interpolation-filters="sRGB">
<feFlood flood-opacity="0" result="BackgroundImageFix"/>
<feColorMatrix in="SourceAlpha" type="matrix" values="0 0 0 0 0 0 0 0 0 0 0 0 0 0 0 0 0 0 127 0" result="hardAlpha"/>
<feOffset dy="4"/>
<feGaussianBlur stdDeviation="2"/>
<feComposite in2="hardAlpha" operator="out"/>
<feColorMatrix type="matrix" values="0 0 0 0 0 0 0 0 0 0 0 0 0 0 0 0 0 0 0.25 0"/>
<feBlend mode="normal" in2="BackgroundImageFix" result="effect1_dropShadow_3_154"/>
<feBlend mode="normal" in="SourceGraphic" in2="effect1_dropShadow_3_154" result="shape"/>
</filter>
<filter id="filter1_d_3_154" x="52.02" y="62.6427" width="124.843" height="31.712" filterUnits="userSpaceOnUse" color-interpolation-filters="sRGB">
<feFlood flood-opacity="0" result="BackgroundImageFix"/>
<feColorMatrix in="SourceAlpha" type="matrix" values="0 0 0 0 0 0 0 0 0 0 0 0 0 0 0 0 0 0 127 0" result="hardAlpha"/>
<feOffset dy="4"/>
<feGaussianBlur stdDeviation="2"/>
<feComposite in2="hardAlpha" operator="out"/>
<feColorMatrix type="matrix" values="0 0 0 0 0 0 0 0 0 0 0 0 0 0 0 0 0 0 0.25 0"/>
<feBlend mode="normal" in2="BackgroundImageFix" result="effect1_dropShadow_3_154"/>
<feBlend mode="normal" in="SourceGraphic" in2="effect1_dropShadow_3_154" result="shape"/>
</filter>
</defs>
</svg>
